<svg width="225" height="40" viewBox="0 0 225 40" fill="none" xmlns="http://www.w3.org/2000/svg"> <g clip-path="url(#clip0_3_12)"> <path d="M136.917 32.1685C136.51 31.9469 136.029 31.8361 135.584 31.873C135.14 31.873 134.696 31.9838 134.289 32.1685C133.845 32.3902 133.438 32.6857 133.105 33.0551C132.957 32.6857 132.697 32.3902 132.364 32.1685C131.994 31.9469 131.587 31.873 131.143 31.873C130.699 31.873 130.218 31.9838 129.81 32.1685C129.366 32.3902 128.922 32.6857 128.589 33.0551L128.626 32.8704C128.7 32.6118 128.626 32.3532 128.478 32.1316C128.33 31.9469 128.108 31.8361 127.849 31.873C127.59 31.873 127.331 31.9838 127.145 32.1685C126.923 32.3902 126.812 32.6857 126.775 33.0182L125.85 38.5593C125.776 38.8548 125.813 39.1873 125.998 39.4828C126.146 39.7045 126.405 39.8153 126.664 39.7784C126.96 39.7784 127.219 39.6675 127.442 39.4828C127.664 39.2242 127.812 38.9287 127.849 38.5593L128.256 35.9365C128.33 35.2716 128.552 34.6436 128.848 34.0525C129.144 33.6092 129.662 33.3506 130.218 33.3876C130.477 33.3506 130.699 33.4615 130.884 33.6462C130.995 33.8309 131.069 34.0895 131.032 34.3111C130.995 34.6805 130.958 35.0869 130.884 35.4563L130.366 38.5593C130.292 38.8548 130.329 39.1873 130.477 39.4828C130.625 39.7045 130.884 39.8153 131.143 39.7784C131.439 39.7784 131.698 39.6675 131.92 39.4828C132.179 39.2242 132.327 38.9287 132.327 38.5593L132.734 35.9734C132.808 35.3824 132.957 34.7913 133.216 34.2372C133.364 33.9786 133.586 33.7939 133.845 33.6092C134.067 33.4615 134.326 33.3876 134.622 33.3876C134.881 33.3506 135.14 33.4615 135.288 33.6462C135.436 33.8309 135.473 34.0525 135.473 34.2742C135.473 34.6066 135.436 34.9391 135.362 35.2716L134.844 38.5224C134.77 38.8179 134.807 39.1504 134.992 39.4459C135.14 39.6675 135.399 39.7784 135.658 39.7414C135.955 39.7414 136.214 39.6306 136.436 39.4459C136.658 39.1873 136.843 38.8918 136.843 38.5224L137.435 34.7544C137.546 34.2003 137.583 33.6462 137.435 33.0921C137.509 32.6857 137.25 32.3902 136.917 32.1685ZM122.963 35.7887C122.889 36.4906 122.593 37.1186 122.149 37.6358C121.779 38.0791 121.223 38.3007 120.631 38.3007C120.298 38.3007 119.928 38.1899 119.669 38.0052C119.41 37.7836 119.225 37.488 119.151 37.1556C119.077 36.7123 119.077 36.269 119.151 35.8257C119.225 35.3455 119.373 34.9022 119.595 34.4589C119.78 34.0895 120.076 33.7939 120.409 33.5723C120.742 33.3876 121.075 33.2768 121.445 33.2768C121.964 33.2398 122.482 33.4984 122.741 33.9417C123.037 34.5328 123.111 35.1608 122.963 35.7887ZM124.332 32.9443C124.036 32.5749 123.666 32.3163 123.222 32.1316C122.741 31.9469 122.186 31.8361 121.668 31.8361C121.112 31.8361 120.557 31.91 120.039 32.1316C119.558 32.3163 119.077 32.5749 118.669 32.9443C118.262 33.3137 117.929 33.7201 117.707 34.2003C117.448 34.7175 117.263 35.2346 117.152 35.8257C117.041 36.3429 117.041 36.897 117.152 37.4141C117.226 37.8574 117.448 38.3007 117.744 38.6701C118.04 39.0395 118.41 39.2981 118.818 39.4828C119.299 39.6675 119.817 39.7784 120.372 39.7784C120.927 39.7784 121.482 39.7045 122.038 39.4828C122.519 39.2981 123 39.0395 123.407 38.6701C123.814 38.3007 124.147 37.8944 124.407 37.4141C124.666 36.897 124.851 36.3798 124.925 35.8257C125.036 35.3085 125.036 34.7544 124.925 34.2372C124.814 33.757 124.629 33.3137 124.332 32.9443ZM115.894 32.6118C115.597 32.3532 115.264 32.1685 114.931 32.0577C114.487 31.91 114.043 31.8361 113.599 31.8361C112.858 31.8361 112.081 31.9838 111.415 32.3163C110.786 32.6488 110.231 33.129 109.86 33.7201C109.453 34.3481 109.157 35.0869 109.046 35.8257C108.861 37.0078 109.046 37.9313 109.601 38.6332C110.157 39.3351 111.045 39.6675 112.229 39.6675C112.747 39.6675 113.303 39.5937 113.784 39.4459C114.228 39.2981 114.635 39.1134 115.005 38.8548C115.301 38.6332 115.56 38.3746 115.782 38.0791C115.968 37.8574 116.079 37.5988 116.116 37.3033C116.153 37.0817 116.116 36.897 115.968 36.7123C115.857 36.5276 115.634 36.4167 115.412 36.4537C115.19 36.4537 115.005 36.5276 114.857 36.6753C114.672 36.8231 114.524 37.0078 114.376 37.1925C114.154 37.525 113.858 37.8205 113.488 38.0052C113.155 38.1899 112.821 38.2638 112.451 38.2638C112.192 38.2638 111.933 38.2268 111.674 38.116C111.452 38.0052 111.267 37.8205 111.119 37.6358C110.971 37.4141 110.897 37.1186 110.86 36.86C110.823 36.5276 110.823 36.1951 110.897 35.8626C110.971 35.1608 111.267 34.5328 111.711 34.0156C112.118 33.6092 112.673 33.3506 113.229 33.3876C113.562 33.3506 113.895 33.4615 114.154 33.6462C114.413 33.8678 114.635 34.1264 114.746 34.4589C114.82 34.6066 114.931 34.7544 115.042 34.8652C115.153 34.9391 115.264 34.976 115.412 34.976C115.671 34.976 115.894 34.9022 116.079 34.7175C116.264 34.5697 116.412 34.3481 116.449 34.1264C116.486 33.8678 116.449 33.6092 116.338 33.3876C116.301 33.0921 116.116 32.8335 115.894 32.6118ZM107.232 37.6358C106.936 37.6358 106.64 37.7466 106.418 37.9313C106.196 38.116 106.048 38.3746 106.011 38.6701C105.937 38.9657 106.011 39.2612 106.196 39.4828C106.381 39.6675 106.64 39.7784 106.899 39.7784C107.195 39.7784 107.455 39.6675 107.677 39.4828C107.936 39.2981 108.084 39.0026 108.121 38.6701C108.158 38.4115 108.121 38.153 107.936 37.9313C107.788 37.7097 107.492 37.5988 107.232 37.6358Z" fill="#6FAC2F"/> <path d="M216.051 15.7299C216.606 15.4343 217.235 15.2496 217.864 15.2866C218.419 15.2496 218.938 15.3605 219.419 15.6191C219.789 15.8407 220.085 16.1732 220.307 16.5426C220.529 16.912 220.788 17.2444 221.121 17.5769C221.381 17.7986 221.714 17.9463 222.084 17.9094C222.565 17.9094 223.046 17.7616 223.416 17.4661C223.749 17.1706 223.971 16.8012 224.045 16.3579C224.119 15.9146 224.008 15.4713 223.823 15.1019C223.564 14.6216 223.231 14.2522 222.787 13.9198C222.232 13.5134 221.603 13.2548 220.936 13.0701C220.085 12.8485 219.197 12.7377 218.271 12.7377C217.124 12.7007 215.977 12.9224 214.903 13.3657C214.015 13.7351 213.201 14.2892 212.608 15.028C212.053 15.656 211.72 16.4317 211.572 17.2444C211.424 18.0202 211.535 18.796 211.979 19.4609C212.423 20.0889 213.053 20.6061 213.756 20.9016C214.755 21.3449 215.792 21.6773 216.828 21.9359C217.679 22.1206 218.494 22.4162 219.234 22.8225C219.715 23.155 219.9 23.746 219.789 24.3001C219.678 24.8173 219.345 25.2606 218.864 25.4823C218.271 25.8517 217.568 26.0364 216.865 25.9994C216.088 26.0733 215.347 25.8886 214.681 25.5192C214.163 25.1128 213.719 24.5957 213.497 23.9677C213.386 23.6722 213.201 23.3766 213.016 23.118C212.756 22.8964 212.46 22.7856 212.127 22.8225C211.683 22.8225 211.239 22.9703 210.906 23.2658C210.573 23.5613 210.351 23.9307 210.277 24.374C210.166 25.039 210.314 25.7408 210.684 26.295C211.165 26.9968 211.831 27.5879 212.645 27.8834C213.756 28.3267 214.94 28.5483 216.125 28.5114C217.42 28.5483 218.716 28.3267 219.937 27.9203C220.936 27.5879 221.825 26.9968 222.528 26.1841C223.194 25.3714 223.601 24.411 223.712 23.4136C223.823 22.7486 223.749 22.0837 223.416 21.4926C223.046 20.9016 222.528 20.3844 221.899 20.052C221.01 19.5717 220.085 19.2393 219.123 19.0176C218.16 18.759 217.383 18.5743 216.828 18.3896C216.347 18.2788 215.94 18.0571 215.532 17.7247C215.236 17.4661 215.088 17.0967 215.162 16.7273C215.273 16.3579 215.607 15.9515 216.051 15.7299ZM207.834 13.4765C207.057 12.9963 206.131 12.7746 205.206 12.8115C204.207 12.8115 203.207 13.0332 202.319 13.4395C201.357 13.9198 200.468 14.6216 199.765 15.4343L199.839 14.9541C199.913 14.5478 199.913 14.1414 199.765 13.772C199.691 13.4765 199.469 13.2179 199.21 13.0332C198.951 12.8485 198.655 12.7746 198.321 12.7746C197.803 12.7746 197.285 12.9593 196.915 13.3287C196.508 13.772 196.249 14.3631 196.175 14.9911L194.361 26.2211C194.213 26.8121 194.287 27.4401 194.62 27.9573C194.916 28.3636 195.397 28.6222 195.916 28.5853C196.471 28.5853 197.026 28.4006 197.433 27.9942C197.914 27.514 198.21 26.886 198.284 26.2211L199.062 21.3449C199.321 19.7564 199.58 18.6851 199.876 18.0941C200.209 17.3922 200.764 16.8012 201.394 16.3948C201.986 15.9885 202.652 15.7668 203.392 15.7668C204.429 15.7668 205.095 16.0993 205.354 16.8012C205.613 17.503 205.613 18.4635 205.428 19.7564L204.392 26.2211C204.244 26.8121 204.355 27.4401 204.651 27.9573C204.947 28.3636 205.465 28.5853 205.946 28.5483C206.501 28.5483 207.019 28.3267 207.427 27.9573C207.871 27.4771 208.167 26.8491 208.241 26.1841L209.388 18.9437C209.499 18.2418 209.573 17.54 209.61 16.8381C209.61 16.3209 209.536 15.8038 209.351 15.2866C209.092 14.5847 208.574 13.9198 207.834 13.4765ZM191.77 12.8115C191.215 12.8115 190.697 13.0332 190.29 13.4026C189.845 13.8828 189.549 14.4739 189.475 15.1388L187.662 26.258C187.514 26.8491 187.588 27.4771 187.921 27.9942C188.217 28.4006 188.698 28.6222 189.216 28.6222C189.771 28.6222 190.327 28.4006 190.734 28.0312C191.215 27.5509 191.511 26.9229 191.585 26.258L193.436 15.028C193.584 14.4739 193.473 13.8828 193.14 13.4026C192.732 12.9963 192.251 12.7746 191.77 12.8115ZM192.732 7.60289C192.214 7.60289 191.696 7.78759 191.289 8.157C190.845 8.48947 190.549 8.9697 190.475 9.52381C190.364 10.004 190.475 10.5582 190.808 10.9276C191.141 11.26 191.622 11.4447 192.103 11.4447C192.621 11.4447 193.14 11.26 193.547 10.9276C193.991 10.5951 194.287 10.0779 194.361 9.52381C194.509 9.04358 194.361 8.48947 193.991 8.12006C193.621 7.78759 193.177 7.60289 192.732 7.60289ZM181.555 21.3449C181.332 22.7117 180.999 23.6722 180.555 24.2632C180.111 24.8173 179.556 25.2606 178.927 25.5561C178.223 25.8886 177.483 26.0733 176.706 26.0733C176.077 26.1102 175.484 25.8886 175.04 25.4453C174.67 25.039 174.522 24.4849 174.633 23.9307C174.707 23.4136 175.003 22.9333 175.41 22.6009C175.781 22.3053 176.225 22.0837 176.706 21.9729C177.15 21.8621 177.927 21.6773 179.038 21.4557C179.926 21.271 180.777 21.0494 181.629 20.7908L181.555 21.3449ZM184.034 13.4026C183.146 12.9963 181.814 12.8115 180.111 12.8115C178.779 12.7746 177.446 12.9593 176.188 13.4026C175.225 13.7351 174.374 14.2892 173.671 14.9911C173.116 15.5452 172.745 16.247 172.597 16.9859C172.523 17.3553 172.634 17.7616 172.894 18.0571C173.449 18.5374 174.3 18.6113 174.929 18.2049C175.114 18.0202 175.41 17.6508 175.855 17.1336C176.262 16.6165 176.743 16.2101 177.335 15.9146C178.038 15.619 178.853 15.4713 179.63 15.5082C180.777 15.5082 181.481 15.7668 181.777 16.247C182.073 16.7273 182.147 17.4661 181.999 18.5004C181.147 18.7221 180.37 18.9437 179.63 19.0915C178.89 19.2393 178.038 19.424 177.039 19.6456C176.04 19.8672 175.41 19.9781 175.151 20.015C174.041 20.2367 172.968 20.7538 172.116 21.5296C171.339 22.2315 170.821 23.1919 170.636 24.2632C170.488 25.002 170.599 25.7778 170.895 26.4427C171.191 27.1446 171.709 27.6987 172.375 28.0312C173.153 28.4375 174.004 28.6592 174.892 28.6222C175.929 28.6222 176.965 28.4375 177.927 28.0681C179.001 27.6248 180 27.0707 180.925 26.4427C181.184 27.0338 181.481 27.5879 181.888 28.0681C182.147 28.4006 182.554 28.6222 182.961 28.6222C183.442 28.6222 183.923 28.4375 184.294 28.142C184.664 27.8834 184.96 27.4771 185.034 27.0338C185.071 26.5166 185.034 25.9994 184.923 25.5192C184.812 24.7804 184.812 24.0046 184.923 23.2289C185.071 22.4531 185.182 21.7512 185.293 21.0863C185.404 20.4214 185.515 19.6825 185.663 18.759C185.922 17.3183 185.885 16.1732 185.626 15.2866C185.478 14.4369 184.849 13.7351 184.034 13.4026ZM168.378 13.4765C167.564 13.0332 166.675 12.8115 165.75 12.8485C164.862 12.8485 163.973 13.0332 163.159 13.4395C162.271 13.8828 161.457 14.4739 160.753 15.1758C160.494 14.4369 159.976 13.8459 159.31 13.4026C158.569 12.9963 157.755 12.7746 156.904 12.8115C155.979 12.8115 155.09 12.9963 154.276 13.3657C153.351 13.8089 152.536 14.4 151.796 15.1388L151.87 14.7694C152.018 14.2522 151.907 13.7351 151.611 13.2918C151.315 12.9224 150.834 12.7377 150.39 12.7377C149.871 12.7377 149.353 12.9224 148.946 13.2918C148.502 13.7351 148.243 14.3261 148.169 14.9541L146.244 26.0733C146.096 26.886 146.17 27.4771 146.503 27.8834C146.799 28.2898 147.318 28.5483 147.836 28.5114C148.428 28.5114 148.983 28.2898 149.39 27.8834C149.871 27.4032 150.168 26.7382 150.242 26.0733L151.167 20.8277C151.352 19.4978 151.759 18.2418 152.425 17.0597C152.981 16.1732 153.906 15.7668 155.164 15.7668C155.794 15.7668 156.238 15.9515 156.46 16.284C156.719 16.6903 156.793 17.1336 156.756 17.6139C156.682 18.3896 156.608 19.1284 156.46 19.9042L155.386 26.1102C155.238 26.9229 155.312 27.5509 155.608 27.9573C155.905 28.3636 156.423 28.5853 156.941 28.5853C157.533 28.5853 158.088 28.3636 158.495 27.9573C158.977 27.4401 159.31 26.8121 159.384 26.1102L160.272 20.9385C160.568 19.2762 160.901 18.131 161.308 17.4661C161.642 16.9859 162.086 16.5426 162.604 16.247C163.048 15.9515 163.603 15.8038 164.121 15.8038C164.64 15.7668 165.121 15.9515 165.454 16.3209C165.713 16.6903 165.861 17.1336 165.824 17.5769C165.787 18.2418 165.713 18.9068 165.602 19.5717L164.492 26.1102C164.344 26.9229 164.455 27.514 164.751 27.9203C165.047 28.3267 165.565 28.5853 166.083 28.5483C166.675 28.5483 167.231 28.3267 167.638 27.9203C168.119 27.4032 168.415 26.7752 168.489 26.0733L169.747 18.5004C170.007 16.9859 170.007 15.8776 169.821 15.1758C169.562 14.5108 169.044 13.8459 168.378 13.4765ZM141.247 20.7169C140.951 22.2684 140.433 23.5244 139.545 24.411C138.768 25.2606 137.657 25.7408 136.51 25.7408C135.807 25.7778 135.14 25.5561 134.585 25.1498C134.067 24.7065 133.697 24.0785 133.586 23.4136C133.401 22.527 133.401 21.6404 133.586 20.7538C133.734 19.7934 134.067 18.9068 134.511 18.0571C134.918 17.3553 135.473 16.7642 136.14 16.3209C136.769 15.9146 137.509 15.7299 138.249 15.7299C139.434 15.7299 140.285 16.1732 140.803 17.0597C141.395 17.9094 141.507 19.1284 141.247 20.7169ZM144.023 14.9911C143.468 14.2892 142.691 13.7351 141.877 13.3657C140.914 12.9593 139.841 12.7746 138.805 12.8115C137.694 12.8115 136.584 12.9963 135.547 13.3657C134.548 13.7351 133.623 14.2522 132.808 14.9541C131.994 15.656 131.328 16.5056 130.81 17.4292C130.255 18.4266 129.884 19.5348 129.699 20.6799C129.477 21.7512 129.477 22.8225 129.662 23.8938C129.81 24.8173 130.218 25.667 130.773 26.4058C131.328 27.1077 132.068 27.6618 132.919 28.0312C133.882 28.4375 134.955 28.6222 135.992 28.5853C137.102 28.5853 138.212 28.4006 139.286 28.0312C140.285 27.6618 141.21 27.1077 142.025 26.4058C142.839 25.7039 143.505 24.8543 144.023 23.8938C144.579 22.8964 144.949 21.8251 145.134 20.6799C145.356 19.6087 145.356 18.5374 145.171 17.4661C145.023 16.5795 144.616 15.7299 144.023 14.9911ZM123.666 20.6799C123.518 21.6404 123.185 22.6009 122.667 23.4505C122.26 24.1154 121.705 24.6696 121.001 25.0759C120.409 25.4084 119.743 25.5931 119.04 25.5931C118.41 25.5931 117.781 25.4084 117.263 25.039C116.745 24.6326 116.375 24.0416 116.227 23.3766C116.042 22.49 116.042 21.5665 116.227 20.6799C116.375 19.7564 116.708 18.8698 117.152 18.0571C117.559 17.3553 118.114 16.7642 118.781 16.3209C119.373 15.9146 120.076 15.7299 120.779 15.7299C121.408 15.7299 122.038 15.9146 122.556 16.3209C123.074 16.7642 123.444 17.3553 123.629 18.0202C123.851 18.9068 123.851 19.8303 123.666 20.6799ZM128.145 7.04878C127.59 7.01183 127.034 7.27042 126.664 7.67677C126.22 8.19394 125.961 8.82194 125.85 9.48687L124.851 15.1758C124.369 14.4369 123.703 13.8459 122.926 13.4026C122.075 12.9963 121.149 12.7746 120.224 12.8115C118.336 12.8115 116.523 13.5504 115.19 14.8802C113.747 16.247 112.821 18.131 112.377 20.5322C112.192 21.6035 112.118 22.6748 112.266 23.746C112.377 24.6696 112.636 25.5561 113.118 26.3319C113.525 27.0338 114.154 27.6248 114.857 28.0312C115.634 28.4375 116.486 28.6222 117.337 28.6222C118.003 28.6222 118.669 28.5114 119.336 28.3267C119.965 28.142 120.594 27.8465 121.149 27.4771C121.779 27.0338 122.408 26.5535 122.963 26.0364L122.889 26.4058C122.741 26.9599 122.815 27.5509 123.111 28.0312C123.407 28.4006 123.851 28.6222 124.332 28.6222C124.851 28.6222 125.369 28.4375 125.739 28.0681C126.183 27.6248 126.479 27.0338 126.553 26.4058L129.625 9.26523C129.773 8.71111 129.699 8.12006 129.44 7.60289C129.144 7.19654 128.663 6.97489 128.145 7.04878Z" fill="#6FAC2F"/> <path d="M111.105 5.16567C110.883 5.20257 105.409 5.90363 102.561 6.3095L101.119 6.49399L101.045 6.67848C101.045 6.67848 100.897 7.15815 100.638 7.8961H100.564C100.527 7.8961 92.7231 8.59716 90.208 9.03993L90.5779 7.37954L91.2806 4.39082L88.2108 4.7229L69.4221 6.75228L67.6838 6.93676L67.4988 8.67095L67.3509 9.81478C65.5386 5.82983 61.5072 5.01808 60.0277 4.68601C59.0291 4.50152 57.9935 4.39082 56.9579 4.39082C55.5525 4.39082 54.3319 4.57531 53.4073 4.7598L53.4813 4.57531L50.1526 4.68601C48.3033 4.7598 46.38 5.23947 44.6047 5.86673L44.7157 5.49775L44.8636 5.01808L41.5349 5.38706L32.5474 6.4202L28.331 19.2606L19.6764 18.8178L18.012 18.744L17.4942 20.3306C16.9764 21.8434 16.0148 22.6183 14.3504 22.729H14.1285C13.4628 22.6921 13.4628 22.5814 13.3888 22.5076C13.2409 22.3231 13.0559 21.7327 13.0559 20.8841C13.0559 20.1461 13.1669 19.2237 13.4628 18.0799C14.0915 15.7553 15.8669 12.3238 17.975 11.549C17.975 11.8811 17.9381 12.3238 17.8271 12.988L17.2723 15.9767L20.3051 15.5708L28.0351 14.5377L29.2187 14.3901L29.4406 14.3532L29.8474 12.988C30.2543 11.5859 30.4762 10.2945 30.4762 9.07683C30.4762 7.15815 29.9584 5.42396 28.8858 4.02185C26.2228 0.62726 21.7846 0.295181 19.9723 0.295181C19.4545 0.295181 18.9736 0.332079 18.4928 0.368977C9.65326 1.29142 2.03421 8.89234 0.332871 18.4488C0.184928 19.4082 0.0739713 20.3306 0.0739713 21.2531C0.0739713 24.4263 1.07258 27.3412 2.99584 29.6288C5.39991 32.5069 8.98752 34.0566 13.0559 34.0566C13.7217 34.0566 14.3874 34.0197 15.0902 33.9459C18.4189 33.54 21.3777 32.5069 23.7818 30.9572L23.0051 33.3186L26.5927 32.7651L34.8405 31.4737L35.9131 31.2892L36.098 31.2523L36.5418 30.0347L39.4637 22.0279C40.4623 19.3344 42.0527 17.7847 45.0116 16.8991C43.0883 19.0761 41.9787 21.8434 41.9417 24.7583V24.8321C41.9417 26.6032 42.5705 28.1898 43.7171 29.3706C45.1965 30.8465 47.4896 31.6582 50.1526 31.6582C50.3005 31.6582 50.4485 31.6582 50.5964 31.6582L49.3019 34.61L53.5552 33.6138L61.951 31.6582L61.6551 33.7614L64.466 33.4662L82.2561 31.5475L83.8835 31.363L84.1794 29.7395L85.3259 19.3344L84.1424 19.1868L85.6588 18.3381C85.3999 19.5558 85.289 20.6258 85.289 21.5851C85.252 25.3118 86.9903 27.2305 88.5437 28.2267H87.5451C86.2876 28.2267 84.9931 28.2267 84.9931 28.2267H84.5862L86.2506 38.7795L86.5095 38.8164C86.5095 38.8164 90.0231 39.2222 91.0957 39.2222C93.5368 39.2222 99.5654 38.8902 103.005 35.2742C105.927 32.2486 107.628 27.1936 109.293 22.2862L109.515 21.6589C110.513 18.7809 113.324 8.41267 113.435 7.9699L114.286 4.7967L111.105 5.16567ZM112.843 7.71161C112.732 8.15439 109.884 18.5595 108.923 21.3638L108.701 21.991C107.037 26.8615 105.298 31.8796 102.561 34.7207C99.3805 38.0784 93.4998 38.4843 91.0957 38.4843C90.319 38.4843 87.693 38.1891 86.8424 38.1153L85.4369 28.854C85.9177 28.854 86.7684 28.854 87.5821 28.854C88.6177 28.854 89.6163 28.854 89.8752 28.8171L91.1697 28.7064L89.9861 28.1898C88.3588 27.415 85.9917 25.9022 85.9917 21.5113C85.9917 20.4413 86.1396 19.1499 86.5095 17.674L86.6944 16.8991L82.1082 19.5558L84.5862 19.8878L83.5136 29.6288L83.3287 30.7358L82.1822 30.8834L64.3921 32.802L62.4318 33.0234L62.7647 30.8096L61.7661 31.0309L53.3703 32.9865L50.4115 33.6876L51.595 30.9572L51.0402 30.994C50.7443 31.0309 50.4115 31.0309 50.0786 31.0309C47.5266 31.0309 45.4184 30.2561 44.1239 28.9647C43.0883 27.8946 42.5335 26.5294 42.5335 24.9059V24.869C42.5705 21.7327 43.902 18.7809 46.1951 16.6409L46.2321 16.604L46.2691 16.5302L46.565 15.9029L45.8992 16.0505C42.0897 16.8622 39.9075 18.6702 38.761 21.9172L35.8391 29.924L35.5432 30.7727L34.6556 30.9203L26.4817 32.101L24.0037 32.47L25.0763 29.223L24.2256 29.8502C21.7846 31.6213 18.6778 32.8389 15.0162 33.2817C14.3504 33.3555 13.6847 33.4293 13.0559 33.4293C9.13546 33.4293 5.76976 31.9165 3.51364 29.223C1.70134 27.046 0.739713 24.3156 0.739713 21.29C0.739713 20.4044 0.813685 19.5189 0.961627 18.5964C2.62598 9.29821 10.0601 1.91868 18.5668 1.03313C19.0476 0.996237 19.4914 0.959339 19.9723 0.959339C21.7106 0.959339 25.927 1.32832 28.2201 4.42772C29.1817 5.71914 29.6995 7.26884 29.6995 9.07683C29.6995 10.2207 29.5146 11.4752 29.1077 12.8035L28.8118 13.7628L27.8132 13.9104L20.0832 14.9436L18.012 15.2018L18.4189 13.1356C18.5668 12.3976 18.6038 11.8811 18.6038 11.5121C18.6038 11.3645 18.6038 11.2169 18.6038 11.1062L18.5668 10.7372L18.1969 10.811C15.386 11.4752 13.5368 15.3494 12.797 17.9323C12.4642 19.113 12.3532 20.1092 12.3532 20.921C12.3532 21.8803 12.5012 22.5445 12.834 22.9504C12.945 23.0979 13.3148 23.4669 14.1285 23.43H14.3874C16.2367 23.3193 17.5682 22.2862 18.123 20.552L18.4928 19.4451L19.6394 19.5189L28.8118 19.9616L33.1022 7.15815L41.6828 6.16191L43.976 5.90363L43.828 6.4202L43.6061 7.08435L44.2349 6.86297C46.1211 6.16191 48.3033 5.57155 50.2265 5.49775L52.5197 5.42396L52.3717 5.82983L53.0005 5.68224C53.9251 5.42396 55.3675 5.16567 56.9949 5.16567C57.9935 5.16567 58.9921 5.23947 59.9538 5.42396C61.6181 5.79294 65.9824 6.67848 67.2769 11.4383L67.9427 11.4014L68.2386 8.81854L68.3865 7.60092L69.607 7.45333L88.3958 5.42396L90.5039 5.20257L90.0231 7.26884L89.3944 9.96237L89.9491 9.81478C91.1697 9.4827 98.3079 8.78165 100.231 8.63406C99.7873 10.1838 98.3449 15.1649 97.4942 17.8585C97.4203 18.1168 97.3463 18.3381 97.2723 18.5226L97.1614 18.7809L97.0504 19.0761L97.6422 19.3713C97.7161 19.2237 97.7531 19.1499 97.7901 19.0023C97.9011 18.744 97.975 18.4119 98.123 18.0061C99.0846 15.128 101.267 8.33888 101.674 7.08435L102.709 6.93676C105.557 6.53089 111.179 5.79294 111.216 5.79294L113.472 5.49775L112.843 7.71161Z" fill="#6FAC2F"/> <path d="M66.8331 20.1092L69.1632 18.5964L68.9413 18.0061L66.7591 18.4119L66.6852 18.5964C66.5742 18.9654 66.4632 19.3344 66.3523 19.7403L66.0934 20.6258L66.8331 20.1092ZM67.2399 18.9654L67.3879 18.9285L67.2399 19.0392V18.9654Z" fill="#6FAC2F"/> <path d="M19.5654 21.0317C18.9367 22.9135 17.4202 24.7214 14.4614 24.9428C10.5409 25.2011 10.282 21.29 11.2806 17.5264C12.0573 14.7591 14.3504 9.74099 18.2709 9.26132C20.0832 9.03993 20.3421 10.9217 19.8983 13.4308L27.6283 12.3976C30.1433 3.91116 23.0791 2.10317 18.7147 2.54594C10.319 3.43149 3.92048 10.811 2.51503 18.8178C1.10957 26.8615 6.76838 32.7651 14.8682 31.7689C20.9709 31.031 26.5557 27.8578 28.294 21.4745L19.5654 21.0317Z" fill="#6FAC2F"/> <path d="M50.2635 6.97366C47.3786 7.08436 43.7171 8.56026 41.1281 9.85168L41.8308 7.67472L33.62 8.56026L26.2228 30.5882L34.4706 29.2968L37.3925 21.29C38.835 17.305 41.6459 14.9436 47.4526 14.1687L50.2635 6.97366Z" fill="#6FAC2F"/> <path d="M59.6579 6.89987C55.6264 6.12502 52.3347 7.41644 52.3347 7.41644L49.4498 13.5046C49.4498 13.5046 55.1456 11.3645 57.6237 12.4714C58.7332 12.988 58.3634 13.689 58.2894 14.6115C56.3292 14.2425 53.1114 14.2425 49.9676 15.8291C46.6019 17.5264 44.1979 20.8103 44.1609 24.7952C44.1239 29.924 50.8553 30.1454 54.3319 28.6695C53.8881 29.6657 53.1114 31.4737 53.1114 31.4737L61.5072 29.5181C61.5072 29.5181 66.1304 16.2719 66.1304 14.427C66.1304 8.52337 62.1359 7.41644 59.6579 6.89987ZM55.6634 24.2049C54.258 24.3894 52.4827 23.9835 52.8525 22.2124C53.4073 19.6665 55.3675 18.5964 57.5127 19.113C57.3278 19.6665 56.2182 22.9504 55.6634 24.2049Z" fill="#6FAC2F"/> <path d="M99.3065 19.3344C98.3079 22.2862 95.2381 21.2531 95.423 19.6296C95.7559 16.1981 97.0874 13.0987 98.086 10.11C97.0134 10.11 90.8738 11.0693 90.245 11.2907C89.1724 14.0211 87.0643 19.851 87.5821 22.0648C88.6547 26.7139 91.0587 27.9315 96.5326 27.1567C95.2751 29.6288 91.9094 30.5513 87.1752 30.3668C87.1752 30.3668 88.5807 36.1597 88.5437 36.787C92.1313 37.2667 98.4928 36.787 101.489 33.6507C104.152 30.9203 105.816 25.7546 107.517 20.8472C108.479 18.043 111.401 7.30574 111.401 7.30574C111.401 7.30574 105.816 8.04369 102.894 8.41267C101.969 11.9548 100.49 15.7553 99.3065 19.3344Z" fill="#6FAC2F"/> <path d="M69.718 8.92924L68.8673 16.4564L77.7439 14.8698L65.5016 22.7659L64.2441 31.2892L82.0342 29.3706L83.4397 21.2162L73.1576 22.9873L86.5834 15.2387L88.5067 6.93677L69.718 8.92924Z" fill="#6FAC2F"/> </g> <defs> <clipPath id="clip0_3_12"> <rect width="224.416" height="40" fill="white"/> </clipPath> </defs> </svg>