<svg width="397" height="66" viewBox="0 0 397 66" fill="none" xmlns="http://www.w3.org/2000/svg">
<path d="M106.524 29.566C111.437 31.3527 113.894 35.5067 113.894 42.028C113.894 45.244 113.537 47.7453 112.822 49.532C112.018 51.3187 110.946 52.748 109.606 53.82C107.105 55.6067 103.129 56.5 97.68 56.5H86.558V9.6H96.608C103.755 9.6 108.221 11.3867 110.008 14.96C110.723 16.2107 111.08 17.7293 111.08 19.516C111.08 21.3027 110.633 23.134 109.74 25.01C108.847 26.886 107.775 28.4047 106.524 29.566ZM99.02 32.246H91.248V52.882H97.278C101.477 52.882 104.425 52.3013 106.122 51.14C108.266 49.8 109.338 47.0307 109.338 42.832C109.338 37.2933 107.373 33.9433 103.442 32.782C102.102 32.4247 100.628 32.246 99.02 32.246ZM103.174 28.762C105.407 25.9033 106.524 23.0893 106.524 20.32C106.524 17.5507 105.631 15.6747 103.844 14.692C102.147 13.7987 99.6453 13.352 96.34 13.352H91.248V28.36H99.288C100.717 28.36 102.057 28.4493 103.308 28.628L103.174 28.762ZM147.662 52.48L147.26 56.5H121.8V9.6H126.356V52.48H147.528H147.662ZM184.646 9.6H188.8V36.4C188.8 43.368 187.147 48.6387 183.842 52.212C180.894 55.16 176.874 56.634 171.782 56.634C166.779 56.634 162.938 55.428 160.258 53.016C156.685 49.7107 154.898 44.1273 154.898 36.266V9.466H159.454V36.266C159.454 42.698 160.794 47.254 163.474 49.934C165.529 51.9887 168.432 53.016 172.184 53.016C177.901 53.016 181.698 50.0233 183.574 44.038C184.199 41.894 184.512 39.2587 184.512 36.132V9.6H184.646ZM223.104 9.6L222.702 13.62H203.138V31.174H221.228L220.826 35.194H203.138V52.48H224.31L223.908 56.5H198.448V9.6H222.97H223.104ZM236.37 56.5H231.68V9.6H241.328C246.867 9.6 250.887 10.4933 253.388 12.28C256.157 14.2453 257.542 17.64 257.542 22.464C257.542 30.5933 254.415 35.5513 248.162 37.338C246.197 37.9633 243.963 38.276 241.462 38.276H236.102V56.5H236.37ZM241.194 13.218H236.37V34.658H241.194C245.214 34.658 248.207 33.7647 250.172 31.978C252.137 30.1913 253.12 27.288 253.12 23.268C253.12 19.3373 252.137 16.6573 250.172 15.228C248.207 13.9773 245.214 13.352 241.194 13.352V13.218ZM291.578 22.196C291.578 28.628 289.345 32.9607 284.878 35.194L294.928 56.5H289.97L280.59 36.534C278.893 36.802 277.106 36.936 275.23 36.936H270.004V56.5H265.448V9.6H275.23C280.59 9.6 284.565 10.4487 287.156 12.146C290.015 14.1113 291.444 17.4613 291.444 22.196H291.578ZM274.962 13.352H270.138V33.318H274.962C278.982 33.318 281.975 32.514 283.94 30.906C285.995 29.298 287.022 26.484 287.022 22.464C287.022 17.372 284.699 14.424 280.054 13.62C278.535 13.352 276.838 13.218 274.962 13.218V13.352ZM314.626 53.284V56.5H302.03V53.284L306.05 52.748V13.352L302.432 12.95V9.6H314.358V12.95L310.606 13.352V52.882L314.626 53.284ZM359.65 56.5H354.692L327.892 15.63L328.294 56.5H324.14V9.6H328.964L355.764 50.47L355.362 9.6H359.65V56.5ZM382.832 56.5H378.678V13.62H365.278L365.68 9.6H396.098L395.696 13.62H382.832V56.5Z" fill="#b41de3"/>
<path d="M34.438 47.778L19.104 31.214C19.0032 31.1014 18.8733 31.0189 18.7287 30.9755C18.584 30.9321 18.4301 30.9295 18.284 30.968C18.1399 31.0309 18.0168 31.1339 17.9296 31.2647C17.8424 31.3956 17.7946 31.5488 17.792 31.706L16.972 47.286C16.9681 47.4778 17.0317 47.665 17.1515 47.8148C17.2714 47.9646 17.44 48.0677 17.628 48.106L33.782 49.09C33.9343 49.09 34.0836 49.0476 34.2131 48.9675C34.3426 48.8875 34.4473 48.7729 34.5154 48.6367C34.5835 48.5005 34.6124 48.348 34.5987 48.1964C34.585 48.0447 34.5294 47.8998 34.438 47.778ZM27.632 47.368C27.6445 47.5004 27.6246 47.6338 27.5741 47.7567C27.5236 47.8797 27.4439 47.9885 27.342 48.0739C27.2401 48.1592 27.1189 48.2185 26.989 48.2466C26.8591 48.2747 26.7243 48.2708 26.5962 48.2352C26.4681 48.1996 26.3506 48.1334 26.2537 48.0423C26.1569 47.9513 26.0837 47.838 26.0404 47.7123C25.9971 47.5866 25.985 47.4523 26.0051 47.3209C26.0252 47.1895 26.077 47.0649 26.156 46.958L26.566 45.318L23.122 44.416L22.63 45.974C22.5267 46.1117 22.3828 46.2134 22.2185 46.2647C22.0542 46.316 21.878 46.3144 21.7147 46.2599C21.5514 46.2055 21.4094 46.1011 21.3088 45.9615C21.2081 45.8219 21.154 45.6541 21.154 45.482L21.646 43.924L19.186 43.268C19.053 43.2921 18.916 43.2829 18.7874 43.2412C18.6588 43.1996 18.5425 43.1268 18.4488 43.0293C18.3551 42.9319 18.287 42.8127 18.2504 42.6826C18.2139 42.5524 18.2102 42.4152 18.2395 42.2832C18.2688 42.1513 18.3303 42.0286 18.4185 41.9261C18.5068 41.8237 18.6189 41.7446 18.7451 41.696C18.8712 41.6474 19.0074 41.6307 19.1416 41.6474C19.2757 41.6642 19.4037 41.7139 19.514 41.792L21.974 42.448L23.04 39.086C23.0968 38.8983 23.2191 38.7371 23.3846 38.6318C23.5501 38.5265 23.7478 38.484 23.942 38.512C24.352 38.676 24.598 39.086 24.516 39.496L23.532 42.94L27.058 43.924L27.14 43.35C27.2222 43.1778 27.362 43.0396 27.5352 42.9594C27.7083 42.8791 27.9041 42.8618 28.0886 42.9104C28.2732 42.9589 28.4351 43.0704 28.5463 43.2255C28.6575 43.3806 28.7112 43.5696 28.698 43.76L27.632 47.368Z" fill="#b41de3"/>
<path d="M43.496 24.188L39.97 23.204L38.904 26.812L42.43 27.796L43.496 24.188Z" fill="#b41de3"/>
<path d="M44.967 18.989L41.491 17.977L40.433 21.611L43.909 22.623L44.967 18.989Z" fill="#b41de3"/>
<path d="M42.096 29.288L38.57 28.304L37.504 31.912L41.03 32.896L42.096 29.288Z" fill="#b41de3"/>
<path d="M41.467 12.489L37.991 11.477L36.933 15.111L40.409 16.123L41.467 12.489Z" fill="#b41de3"/>
<path d="M39.967 17.689L36.491 16.677L35.433 20.311L38.909 21.323L39.967 17.689Z" fill="#b41de3"/>
<path d="M46.496 13.888L42.97 12.904L41.904 16.512L45.43 17.496L46.496 13.888Z" fill="#b41de3"/>
<path d="M51.496 15.388L47.97 14.404L46.904 18.012L50.43 18.996L51.496 15.388Z" fill="#b41de3"/>
<path d="M49.967 20.489L46.491 19.477L45.433 23.111L48.909 24.123L49.967 20.489Z" fill="#b41de3"/>
<path d="M48.467 25.589L44.991 24.577L43.933 28.211L47.409 29.223L48.467 25.589Z" fill="#b41de3"/>
<path d="M47.096 30.688L43.57 29.704L42.504 33.312L46.03 34.296L47.096 30.688Z" fill="#b41de3"/>
<path d="M34.996 16.188L31.47 15.204L30.404 18.812L33.93 19.796L34.996 16.188Z" fill="#b41de3"/>
<path d="M26.467 8.189L22.991 7.177L21.933 10.811L25.409 11.823L26.467 8.189Z" fill="#b41de3"/>
<path d="M21.467 6.689L17.991 5.677L16.933 9.311L20.409 10.323L21.467 6.689Z" fill="#b41de3"/>
<path d="M68.468 3.33401C65.5661 2.34296 62.4522 2.1448 59.448 2.76001C59.335 2.80093 59.2323 2.86621 59.1472 2.95124C59.0622 3.03626 58.9969 3.13894 58.956 3.25201L56.25 12.6L15.168 0.792007C14.9722 0.737459 14.7631 0.757593 14.5813 0.848503C14.3994 0.939413 14.2579 1.09462 14.184 1.28401L12.134 8.66401L9.83801 6.20401C9.72862 6.10562 9.59477 6.03848 9.45049 6.00962C9.30622 5.98077 9.15684 5.99126 9.01801 6.04001C8.88564 6.09655 8.77049 6.18694 8.68413 6.30209C8.59776 6.41724 8.54323 6.5531 8.52601 6.69601L7.46001 24.9L0.326014 49.664C0.244014 50.074 0.490014 50.484 0.900014 50.648L5.82001 52.042L5.57401 56.962C5.57401 57.1795 5.66041 57.3881 5.81419 57.5418C5.96797 57.6956 6.17654 57.782 6.39401 57.782L30.42 59.012L50.674 64.752C59.612 67.54 60.924 62.948 61.58 60.57L73.716 18.34L75.52 12.108C76.34 8.99201 73.962 4.89201 68.468 3.33401ZM16.726 4.64601C16.7828 4.45826 16.9051 4.2971 17.0706 4.19179C17.2361 4.08647 17.4339 4.04398 17.628 4.07201L52.56 14.076C52.97 14.24 53.216 14.65 53.052 15.06L45.262 42.12C45.1902 42.2925 45.0617 42.4353 44.8976 42.5248C44.7336 42.6143 44.5439 42.645 44.36 42.612C44.1723 42.5552 44.0111 42.4329 43.9058 42.2674C43.8005 42.1019 43.758 41.9042 43.786 41.71L45.508 35.724L42.064 34.658L41.162 37.692C41.1745 37.8244 41.1547 37.9578 41.1041 38.0807C41.0536 38.2037 40.974 38.3125 40.872 38.3979C40.7701 38.4832 40.649 38.5425 40.519 38.5706C40.3891 38.5987 40.2543 38.5948 40.1262 38.5592C39.9981 38.5236 39.8806 38.4574 39.7838 38.3663C39.6869 38.2753 39.6137 38.162 39.5704 38.0363C39.5271 37.9106 39.515 37.7763 39.5351 37.6449C39.5553 37.5135 39.607 37.3889 39.686 37.282L40.506 34.248L36.324 33.018C36.1363 32.9612 35.9751 32.8389 35.8698 32.6734C35.7645 32.5079 35.722 32.3102 35.75 32.116L37.062 27.77L33.536 26.704L32.88 29C32.8925 29.1324 32.8727 29.2658 32.8221 29.3887C32.7716 29.5117 32.692 29.6205 32.59 29.7059C32.4881 29.7912 32.3669 29.8505 32.237 29.8786C32.1071 29.9067 31.9723 29.9028 31.8442 29.8672C31.7161 29.8316 31.5986 29.7654 31.5018 29.6743C31.4049 29.5833 31.3317 29.47 31.2884 29.3443C31.2451 29.2186 31.233 29.0843 31.2531 28.9529C31.2733 28.8215 31.325 28.6969 31.404 28.59L32.06 26.458L27.796 25.228C27.6235 25.1562 27.4807 25.0277 27.3912 24.8636C27.3017 24.6996 27.271 24.5099 27.304 24.326L28.534 19.98L25.008 18.914L24.598 20.308C24.6105 20.4404 24.5907 20.5738 24.5401 20.6967C24.4896 20.8197 24.41 20.9285 24.308 21.0139C24.2061 21.0992 24.085 21.1585 23.955 21.1866C23.8251 21.2147 23.6903 21.2108 23.5622 21.1752C23.4341 21.1396 23.3166 21.0734 23.2198 20.9823C23.1229 20.8913 23.0497 20.778 23.0064 20.6523C22.9631 20.5266 22.951 20.3923 22.9711 20.2609C22.9913 20.1295 23.043 20.0049 23.122 19.898L25.008 13.42L21.482 12.436L20.58 15.88C20.5925 16.0124 20.5727 16.1458 20.5221 16.2687C20.4716 16.3917 20.392 16.5005 20.29 16.5859C20.1881 16.6712 20.067 16.7305 19.937 16.7586C19.8071 16.7867 19.6723 16.7828 19.5442 16.7472C19.4161 16.7116 19.2986 16.6454 19.2018 16.5543C19.1049 16.4633 19.0317 16.35 18.9884 16.2243C18.9451 16.0986 18.933 15.9643 18.9531 15.8329C18.9733 15.7015 19.025 15.5769 19.104 15.47L20.088 11.944L15.988 10.714H15.824C15.6515 10.6422 15.5087 10.5137 15.4192 10.3496C15.3298 10.1856 15.299 9.99591 15.332 9.81201L16.808 4.64601H16.726ZM5.82001 47.86C5.83252 47.9924 5.81265 48.1258 5.76214 48.2487C5.71162 48.3717 5.63196 48.4805 5.53003 48.5659C5.4281 48.6512 5.30695 48.7105 5.17702 48.7386C5.04709 48.7667 4.91227 48.7628 4.78418 48.7272C4.65609 48.6916 4.53858 48.6254 4.44175 48.5343C4.34493 48.4433 4.27171 48.33 4.2284 48.2043C4.18508 48.0786 4.17297 47.9443 4.19311 47.8129C4.21326 47.6815 4.26504 47.5569 4.34401 47.45L5.16401 44.58C5.26264 44.4464 5.3995 44.346 5.55647 44.2919C5.71344 44.2378 5.88314 44.2326 6.04312 44.277C6.20309 44.3215 6.34581 44.4134 6.45239 44.5407C6.55897 44.668 6.6244 44.8247 6.64001 44.99L5.82001 47.86ZM7.13201 56.142L9.83801 8.58201L15.742 14.896L13.938 16.372C13.8222 16.4277 13.7212 16.5097 13.6429 16.6116C13.5647 16.7134 13.5115 16.8323 13.4876 16.9585C13.4637 17.0847 13.4698 17.2147 13.5053 17.3381C13.5409 17.4616 13.605 17.5749 13.6924 17.669C13.7798 17.7631 13.8881 17.8354 14.0085 17.88C14.129 17.9246 14.2582 17.9403 14.3858 17.9258C14.5135 17.9113 14.6359 17.867 14.7433 17.7965C14.8506 17.7261 14.94 17.6313 15.004 17.52L16.726 15.962L18.694 18.176L17.054 19.734C16.9253 19.7754 16.8088 19.8479 16.7149 19.9452C16.621 20.0425 16.5526 20.1614 16.5158 20.2915C16.479 20.4216 16.475 20.5588 16.504 20.6908C16.5331 20.8229 16.5943 20.9457 16.6823 21.0483C16.7703 21.151 16.8823 21.2303 17.0083 21.2792C17.1344 21.3281 17.2706 21.345 17.4047 21.3286C17.5389 21.3121 17.667 21.2627 17.7775 21.1848C17.8879 21.1069 17.9775 21.0029 18.038 20.882L19.76 19.242L21.728 21.456L20.006 23.014C19.9187 23.1658 19.8822 23.3415 19.902 23.5155C19.9218 23.6895 19.9967 23.8526 20.1159 23.9809C20.235 24.1092 20.3921 24.1961 20.5642 24.2286C20.7362 24.2612 20.9142 24.2379 21.072 24.162L22.794 22.522L24.762 24.736L23.04 26.294C22.9495 26.3881 22.8828 26.5025 22.8455 26.6277C22.8081 26.7528 22.8012 26.885 22.8253 27.0133C22.8493 27.1417 22.9037 27.2624 22.9838 27.3655C23.064 27.4686 23.1676 27.551 23.286 27.606C23.532 27.606 23.86 27.606 24.106 27.442L25.746 25.802L27.96 28.18L26.156 29.738C26.0678 29.8377 26.0051 29.9574 25.9735 30.0868C25.9419 30.2161 25.9422 30.3512 25.9745 30.4804C26.0068 30.6096 26.0701 30.7289 26.1588 30.8282C26.2476 30.9274 26.3592 31.0036 26.484 31.05C26.73 31.05 26.976 31.05 27.222 30.886L29.026 29.246L30.994 31.46L29.19 33.1C29.1304 33.249 29.1158 33.4123 29.148 33.5695C29.1803 33.7267 29.258 33.8711 29.3715 33.9846C29.485 34.0981 29.6293 34.1757 29.7865 34.208C29.9438 34.2403 30.107 34.2257 30.256 34.166L32.06 32.526L34.028 34.74L32.224 36.38C32.1644 36.529 32.1498 36.6923 32.182 36.8495C32.2143 37.0067 32.292 37.1511 32.4055 37.2646C32.519 37.3781 32.6633 37.4557 32.8205 37.488C32.9778 37.5203 33.141 37.5057 33.29 37.446L35.012 35.806L36.98 38.02L35.176 39.66C35.0395 39.6964 34.9147 39.7674 34.8137 39.8661C34.7127 39.9649 34.6389 40.0881 34.5995 40.2238C34.5601 40.3594 34.5565 40.503 34.5889 40.6405C34.6213 40.778 34.6886 40.9048 34.7845 41.0086C34.8803 41.1124 35.0013 41.1897 35.1358 41.233C35.2703 41.2762 35.4136 41.2841 35.552 41.2556C35.6904 41.2272 35.8191 41.1635 35.9256 41.0707C36.0321 40.9779 36.1129 40.8592 36.16 40.726L37.964 39.086L39.932 41.3L38.128 42.94C38.0122 42.9957 37.9112 43.0777 37.8329 43.1796C37.7547 43.2815 37.7015 43.4003 37.6776 43.5265C37.6537 43.6527 37.6598 43.7827 37.6953 43.9061C37.7309 44.0296 37.795 44.1429 37.8824 44.237C37.9698 44.3311 38.0781 44.4034 38.1985 44.448C38.319 44.4926 38.4482 44.5083 38.5758 44.4938C38.7035 44.4793 38.8259 44.435 38.9333 44.3645C39.0406 44.2941 39.13 44.1993 39.194 44.088L40.998 42.448L42.966 44.58L41.162 46.22C41.0738 46.3197 41.0111 46.4394 40.9795 46.5688C40.9479 46.6981 40.9482 46.8332 40.9805 46.9624C41.0128 47.0916 41.0761 47.2109 41.1648 47.3102C41.2536 47.4094 41.3652 47.4856 41.49 47.532C41.736 47.532 41.982 47.532 42.228 47.368L44.032 45.728L46.164 48.024L45.098 51.714C45.016 51.96 45.098 52.288 45.262 52.534C45.426 52.698 45.754 52.78 46.082 52.698C46.082 52.698 47.64 52.288 50.346 52.534L56.332 59.094L7.13201 56.306V56.142ZM61.006 56.47C60.022 54.42 57.808 52.616 54.446 51.55C51.9799 50.7915 49.3911 50.5131 46.82 50.73L60.186 3.99001C61.17 3.90801 63.958 3.58001 67.976 4.81001C72.978 6.20401 74.536 9.64801 73.88 11.616L61.088 56.552L61.006 56.47Z" fill="#b41de3"/>
<path d="M29.967 14.689L26.491 13.677L25.433 17.311L28.909 18.323L29.967 14.689Z" fill="#b41de3"/>
<path d="M31.496 9.68801L27.97 8.70401L26.904 12.312L30.43 13.296L31.496 9.68801Z" fill="#b41de3"/>
<path d="M36.496 11.088L32.97 10.104L31.904 13.712L35.43 14.696L36.496 11.088Z" fill="#b41de3"/>
<path d="M38.496 22.688L34.97 21.704L33.904 25.312L37.43 26.296L38.496 22.688Z" fill="#b41de3"/>
<path d="M33.467 21.289L29.991 20.277L28.933 23.911L32.409 24.923L33.467 21.289Z" fill="#b41de3"/>
</svg>
