<svg width="24" height="24" viewBox="0 0 24 24" fill="none" xmlns="http://www.w3.org/2000/svg"> <path d="M21.3371 7.53933C20.6966 7.13483 19.8539 6.93259 18.809 6.93259H14.3596L10.6517 18.9326H15.0337C16.0787 18.9326 17.0562 18.7303 17.9663 18.3933C18.8764 18.0225 19.6854 17.5169 20.427 16.8427C21.1348 16.2022 21.7079 15.3933 22.1798 14.5169C22.6517 13.6405 22.8876 12.6629 22.9888 11.5843C23.0899 10.7079 22.9888 9.89888 22.6854 9.22472C22.4494 8.48315 22.0112 7.94382 21.3371 7.53933ZM19.6854 12.0562C19.6517 12.5955 19.4831 13.1011 19.3146 13.6067C19.1124 14.0787 18.8427 14.5506 18.5056 14.8876C18.1685 15.2584 17.7978 15.5618 17.3933 15.764C16.9551 15.9663 16.5169 16.1011 16.0112 16.1011H14.764L16.7865 9.62922H18C18.4382 9.62922 18.7753 9.73034 19.0449 9.93259C19.3483 10.1348 19.5169 10.4045 19.6517 10.7753C19.6854 11.1461 19.7191 11.5843 19.6854 12.0562Z" fill="white"/> <path d="M5.89888 14.2022C5.86517 14.2022 5.79776 14.2022 5.76405 14.2022C5.29214 14.2022 4.88764 14.0337 4.65169 13.7303C4.11236 13.0225 4.34832 11.7416 4.51686 11.0337C4.61798 10.6966 5.46068 7.79776 7.44944 7.5618C7.7191 7.52809 7.92135 7.59551 8.05618 7.76405C8.25843 8.03371 8.32585 8.53933 8.19101 9.2809L11.2247 8.87641C11.5618 7.69663 11.4607 6.75281 10.9551 6.07865C10.1798 5.03371 8.69663 4.93259 8.08989 4.93259C7.92135 4.93259 7.75281 4.93259 7.58427 4.96629C4.38203 5.30337 1.58427 8.10113 0.977531 11.6405C0.707868 13.1236 1.01124 14.4719 1.85394 15.4831C2.62922 16.427 3.87641 16.9663 5.25843 16.9663C5.49439 16.9663 5.73034 16.9326 5.9663 16.9326C8.76405 16.5955 10.4157 15.2472 11.1236 12.8202L7.98877 12.6517C7.85394 13.1573 7.2809 14.1011 5.89888 14.2022Z" fill="white"/> </svg>